<svg width="87" height="54" fill="none" xmlns="http://www.w3.org/2000/svg"><path d="M25.3.2c5.1 0 9.4 1 13 3 3.5 2.1 6.2 5.1 8 9.1 2 4 2.9 8.9 2.9 14.6 0 5.4-1 10.1-3 14-2 4-4.9 7.1-8.5 9.3-3.6 2.2-8 3.2-12.9 3.2-5 0-9.3-1-13-3a20 20 0 01-8-9.1C1.8 37.3 1 32.4 1 26.7c0-5.4 1-10 3-14s4.8-7.1 8.5-9.3C16 1.3 20.4.2 25.3.2zm6.9 28.4c0-5.9-.3-10.6-.8-14.1-.6-3.6-1.4-6.1-2.5-7.7-1-1.5-2.4-2.3-4.1-2.3-1.6 0-2.8.7-3.8 2-1 1.4-1.8 3.6-2.3 6.6a100 100 0 000 26c.6 3.6 1.4 6.1 2.5 7.7 1.1 1.5 2.5 2.3 4.2 2.3 1.5 0 2.8-.7 3.8-2 1-1.4 1.8-3.5 2.2-6.5.5-3 .8-7 .8-12zM57.6 10h2.2c.8 0 1.4.2 1.8.7.4.4.6 1.2.6 2.4V43c0 1-.2 1.7-.6 2.2-.4.4-.9.8-1.6 1l-3.6.7c-1.6.4-2.4 1.3-2.4 2.6 0 .8.3 1.4.8 1.9.5.4 1.3.6 2.4.6h26.1c1 0 1.7-.2 2.1-.6.5-.5.7-1.1.7-1.9 0-1.4-.7-2.2-2-2.5l-3.2-.9c-.7-.1-1.2-.5-1.5-1a4 4 0 01-.5-2.1V3.4c0-2-1-2.9-3-2.9-.5 0-1.1 0-1.7.2l-1.7.7c-2 1-3.8 1.7-5.5 2.2-1.6.5-3.6.8-6 .8h-3.2c-1 0-1.8.2-2.4.8-.6.5-1 1.2-1 2s.3 1.5.8 2c.5.6 1.3.8 2.4.8z" fill="#FDD6BA"/></svg>