<svg width="99" height="54" fill="none" xmlns="http://www.w3.org/2000/svg"><path d="M25.2.2c5.1 0 9.4 1 13 3 3.5 2.1 6.2 5.1 8 9.1 2 4 2.9 8.9 2.9 14.6 0 5.4-1 10.1-3 14-2 4-4.8 7.1-8.5 9.3-3.6 2.2-7.9 3.2-12.8 3.2-5.1 0-9.4-1-13-3a20 20 0 01-8.1-9.1C1.8 37.3.9 32.4.9 26.7c0-5.4 1-10 3-14s4.8-7.1 8.5-9.3C16 1.3 20.3.2 25.2.2zm6.9 28.4c0-5.9-.3-10.6-.8-14.1-.6-3.6-1.4-6.1-2.5-7.7-1-1.5-2.4-2.3-4.1-2.3-1.6 0-2.8.7-3.8 2-1 1.4-1.8 3.6-2.3 6.6a100 100 0 000 26c.6 3.6 1.4 6.1 2.5 7.7 1.1 1.5 2.5 2.3 4.2 2.3 1.5 0 2.8-.7 3.8-2 1-1.4 1.8-3.5 2.2-6.5.5-3 .8-7 .8-12zm28.6 11.2L58.3 38l6.6-3.4a28 28 0 006.7-4.7c1.8-1.7 3.2-3.8 4-6.1 1-2.4 1.5-5.1 1.5-8.2 0-3-.1-5.2-.5-7-.3-1.6-.8-2.9-1.4-3.7A2.7 2.7 0 0073 3.8c-1.2 0-2 .5-2.5 1.7-.5 1-.7 2.6-.7 4.5v5a7 7 0 01-2.1 5.3 7.7 7.7 0 01-5.7 2c-2.2 0-4-.7-5.4-2.1a8.3 8.3 0 01-2-6c0-2.4.7-4.7 2-6.9a15 15 0 016.7-5.2c3-1.3 6.8-2 11.4-2 4.6 0 8.4.7 11.3 2 3 1.2 5 3 6.5 5.3a14 14 0 012 7.6c0 2.6-.6 5-2 7a23.1 23.1 0 01-6.8 6.3c-3 2-7 4-11.7 6l-13.3 5.5zm-7.3 5.7a8 8 0 013.4-6.7c2.2-1.8 5.4-2.6 9.6-2.6a101.1 101.1 0 0115.2 2l5.3.2c1.6 0 3-.3 4-.9 1-.6 1.8-1.6 2.6-2.9.4-.6.8-1 1.3-1.3.4-.2 1-.3 1.4-.3.7 0 1.1.4 1.5 1 .3.5.4 1.3.3 2.5-.3 4-1 7.4-2.1 9.8a11.7 11.7 0 01-4.5 5.4c-1.9 1.2-4 1.7-6.6 1.7-2 0-3.8-.2-5.3-.8a9 9 0 01-3.8-2.8c-1.1-1.3-2-3-2.8-5.3-.4-1.1-.7-1.9-1-2.3-.4-.3-.8-.5-1.3-.5-.6 0-1 .3-1.5.8-.3.6-.6 1.4-.7 2.7A12 12 0 0167 50a6 6 0 01-2.8 2.5c-1.2.6-2.6.8-4.2.8-1.9 0-3.5-.7-4.8-2a8.5 8.5 0 01-1.9-5.9z" fill="#FDD6BA"/></svg>