<svg width="95" height="54" fill="none" xmlns="http://www.w3.org/2000/svg"><path d="M25 .2c5 0 9.4 1 13 3 3.5 2.1 6.2 5.1 8 9.1 2 4 2.8 8.9 2.8 14.6 0 5.4-1 10.1-3 14-2 4-4.8 7.1-8.4 9.3-3.7 2.2-8 3.2-12.9 3.2-5 0-9.4-1-13-3a20 20 0 01-8-9.1c-2-4-2.9-8.9-2.9-14.6 0-5.4 1-10 3-14s4.9-7.1 8.5-9.3C15.8 1.3 20.1.2 25 .2zm6.9 28.4c0-5.9-.3-10.6-.9-14.1-.5-3.6-1.3-6.1-2.4-7.7-1.1-1.5-2.5-2.3-4.2-2.3-1.5 0-2.8.7-3.8 2-1 1.4-1.7 3.6-2.2 6.6a100 100 0 000 26c.6 3.6 1.4 6.1 2.5 7.7 1 1.5 2.5 2.3 4.2 2.3 1.5 0 2.8-.7 3.8-2 1-1.4 1.7-3.5 2.2-6.5.5-3 .8-7 .8-12zm40.3-2.7L71 24.7a13.4 13.4 0 013.3-.6l2-.1c3.4 0 6.5.5 9 1.6 2.6 1 4.7 2.5 6.1 4.5 1.5 2 2.2 4.3 2.2 7 0 3.3-.9 6.2-2.6 8.6-1.6 2.5-4 4.4-7.2 5.7-3.1 1.4-6.8 2-11.2 2-4.2 0-7.7-.5-10.5-1.5s-4.8-2.4-6.2-4.1a9.7 9.7 0 01-2-6.1c0-2.3.7-4.2 2.2-5.7a7.7 7.7 0 015.6-2.2c2.4 0 4.2.6 5.4 1.9 1.3 1.2 1.9 3 1.9 5v3.8c0 1.4.3 2.6.9 3.6a3 3 0 002.6 1.5c1.1 0 2-.3 2.9-1 .8-.7 1.4-1.8 1.8-3.3.4-1.5.7-3.5.7-6 0-3.6-.6-6.2-1.8-7.7a5.5 5.5 0 00-4.6-2.4h-2.6c-1 0-1.8-.2-2.2-.6-.5-.5-.8-1.1-.8-2 0-.6.2-1.1.4-1.6.3-.5.8-1 1.6-1.7l16-13.9.4 4.5h-19c-1 0-1.9.2-2.4.5-.6.4-1 1-1.1 1.7L61 19c-.2.6-.5 1.2-1 1.6-.5.5-1.1.7-2 .7-.9 0-1.6-.3-2.2-.7-.5-.5-.7-1.2-.6-2.2L56.6 5c0-1 .5-1.8 1.2-2.4.8-.6 1.8-.9 3-.9h29.3c1.4 0 2.5.2 3.1.5.6.4 1 1 1 1.8 0 .5-.3 1.1-.7 1.8-.4.6-1.2 1.6-2.5 2.7L72.2 26z" fill="#FDD6BA"/></svg>