<svg width="25" height="24" fill="none" xmlns="http://www.w3.org/2000/svg"><path fill-rule="evenodd" clip-rule="evenodd" d="M12.1 0h-5C2.9.4.5 2.8.2 7a84.3 84.3 0 000 10c.3 4.3 2.7 6.7 7 7a85.6 85.6 0 0010 0c4.3-.3 6.7-2.7 7-7a84.3 84.3 0 000-10c-.3-4.3-2.7-6.7-7-7h-5zm0 2.2H17c3.2.2 4.7 1.7 4.9 5a83.4 83.4 0 010 9.7c-.2 3.2-1.7 4.7-5 4.9a83 83 0 01-9.6 0c-3.3-.2-4.8-1.7-5-5a83 83 0 010-9.6c.2-3.3 1.7-4.8 5-5H12zM5.9 12a6.2 6.2 0 1112.4 0 6.2 6.2 0 01-12.4 0zm6.2 4a4 4 0 110-8 4 4 0 010 8zm5-10.4a1.4 1.4 0 112.8 0 1.4 1.4 0 01-2.8 0z" fill="#FEFCF7"/></svg>