<svg width="72" height="50" fill="none" xmlns="http://www.w3.org/2000/svg"><path fill-rule="evenodd" clip-rule="evenodd" d="M4.8 0H9v4.2H4.8V0zM0 19.4h4.2v4.2H0v-4.2zM16.4 4.2h-3.3V0h35.4v35.4a10.5 10.5 0 00-3.7 7.7H27.1a10.5 10.5 0 00-10.5-10.2c-5.7 0-10.3 4.5-10.4 10.2H0V29h11.8a2.7 2.7 0 000-5.5H8.3v-4.2h18a2.7 2.7 0 000-5.5H0V9.7h16.6c1.5 0 2.7-1.2 2.7-2.7 0-1.5-1.3-2.8-2.9-2.8zm32.8 39.6c0-3.5 2.7-6.3 6.2-6.3a6.2 6.2 0 010 12.5 6.2 6.2 0 01-6.2-6.3zm4 2h4.3v-4.2h-4.2V46zm-.6-41h8.5l9.5 14.6h-18V5zm0 18.8v9.6A10.6 10.6 0 0165.8 43H72V23.6H52.6zm-36 13.9a6.2 6.2 0 000 12.5 6.2 6.2 0 000-12.5zm2.1 8.4h-4.2v-4.3h4.2V46z" fill="#FDD6BA"/></svg>