<svg width="72" height="72" fill="none" xmlns="http://www.w3.org/2000/svg"><path fill-rule="evenodd" clip-rule="evenodd" d="M36 24h2v15h28.7c3 0 5.3-2.4 5.3-5.3v-7.5c0-2.8-2.4-5.2-5.3-5.2H54.6C63 17.7 67 12.3 67 8c0-3.7-3-8-11.3-8C45 0 39 7.6 36 14.6 33 7.6 27 0 16.3 0 8 0 5 4.3 5 8c0 4.3 4 9.7 12.4 13H5.3A5.3 5.3 0 000 26.3v7.4c0 3 2.4 5.3 5.3 5.3H34V24a70.2 70.2 0 002 0zm3.2-4.5c1.4-5 5.5-15 16.5-15 3.3 0 6.7.9 6.7 3.6 0 1.8-1.6 4.6-6 7-3 1.9-8.5 4-17.2 4.4zM34 44H6v22.8c0 2.9 2.4 5.2 5.3 5.2H34V44zm32 22.8V44H38v28h22.7c3 0 5.3-2.3 5.3-5.2zM16.3 4.5c-3.3 0-6.7.9-6.7 3.6 0 3.8 6.9 10.7 23.2 11.4-1.4-5-5.5-15-16.5-15z" fill="#FDD6BA"/></svg>